<svg xmlns="http://www.w3.org/2000/svg" version="1.1" xmlns:xlink="http://www.w3.org/1999/xlink" xmlns:svgjs="http://svgjs.dev/svgjs" width="1500" height="348" viewBox="0 0 1500 348"><g transform="matrix(1,0,0,1,-0.9090909090909918,-0.15135825085710053)"><svg viewBox="0 0 396 92" data-background-color="#ffffff" preserveAspectRatio="xMidYMid meet" height="348" width="1500" xmlns="http://www.w3.org/2000/svg" xmlns:xlink="http://www.w3.org/1999/xlink"><g id="tight-bounds" transform="matrix(1,0,0,1,0.2400000000000091,0.040014250226590775)"><svg viewBox="0 0 395.52 91.9199714995468" height="91.9199714995468" width="395.52"><g><svg viewBox="0 0 543.3731023917543 126.28145248146842" height="91.9199714995468" width="395.52"><g transform="matrix(1,0,0,1,147.85310239175433,17.452791189551718)"><svg viewBox="0 0 395.52 91.37587010236498" height="91.37587010236498" width="395.52"><g id="textblocktransform"><svg viewBox="0 0 395.52 91.37587010236498" height="91.37587010236498" width="395.52" id="textblock"><g><svg viewBox="0 0 395.52 91.37587010236498" height="91.37587010236498" width="395.52"><g transform="matrix(1,0,0,1,0,0)"><svg width="395.52" viewBox="1.2 -31.18 141.64000000000001 32.73" height="91.37587010236498" data-palette-color="#264f0b"><path d="M5.5 1.05L5.5 1.05Q4.2 1.05 3.34 0.21 2.48-0.63 2.05-2.3L2.05-2.3Q1.88-3 1.75-4.11 1.63-5.23 1.51-6.56 1.4-7.9 1.34-9.3 1.28-10.7 1.24-12.03 1.2-13.35 1.2-14.4L1.2-14.4Q1.2-17.98 1.63-20.71 2.05-23.45 2.94-25.44 3.83-27.43 5.26-28.69 6.7-29.95 8.74-30.56 10.78-31.18 13.5-31.18L13.5-31.18Q16.1-31.18 18.45-30.61 20.8-30.05 22.61-28.93 24.43-27.8 25.46-26.13 26.5-24.45 26.5-22.25L26.5-22.25Q26.5-20.18 25.58-18.78 24.65-17.38 23.18-16.5 21.7-15.63 20.01-15.15 18.32-14.68 16.8-14.45L16.8-14.45Q15.95-14.33 15.63-14.18 15.3-14.03 15.3-13.73L15.3-13.73Q15.3-13.53 15.61-13.18 15.93-12.83 16.46-12.34 17-11.85 17.7-11.21 18.4-10.58 19.15-9.8L19.15-9.8Q19.88-9.08 20.84-8.1 21.8-7.13 22.78-6.09 23.75-5.05 24.59-4.11 25.43-3.18 25.95-2.5 26.48-1.83 26.48-1.6L26.48-1.6Q26.48-0.9 26.05-0.43 25.63 0.05 24.98 0.29 24.33 0.53 23.55 0.53L23.55 0.53Q22.75 0.53 21.79 0.05 20.83-0.43 19.76-1.28 18.7-2.13 17.6-3.25 16.5-4.38 15.4-5.7L15.4-5.7Q13.75-7.55 12.43-8.93 11.1-10.3 10.2-11.08 9.3-11.85 8.95-11.85L8.95-11.85Q8.7-11.85 8.56-11.64 8.43-11.43 8.36-10.89 8.3-10.35 8.29-9.43 8.28-8.5 8.28-7.08L8.28-7.08Q8.28-6.65 8.29-6 8.3-5.35 8.31-4.63 8.33-3.9 8.33-3.23 8.33-2.55 8.33-2.02 8.33-1.5 8.3-1.28L8.3-1.28Q8.1 0 7.34 0.53 6.58 1.05 5.5 1.05ZM11.03-16.5L11.03-16.5Q11.88-16.5 13.11-16.66 14.35-16.82 15.68-17.23 17-17.63 18.16-18.29 19.33-18.95 20.05-19.95 20.78-20.95 20.78-22.3L20.78-22.3Q20.78-23.7 20.11-24.68 19.45-25.65 18.34-26.24 17.23-26.83 15.88-27.1 14.53-27.38 13.15-27.38L13.15-27.38Q11.73-27.38 10.76-26.98 9.8-26.58 9.21-25.78 8.63-24.98 8.35-23.68L8.35-23.68Q8.18-22.95 8.09-22.23 8-21.5 7.95-20.79 7.9-20.08 7.9-19.4L7.9-19.4Q7.9-18.3 8.14-17.66 8.38-17.03 9.05-16.76 9.73-16.5 11.03-16.5ZM41.25 1.55L41.25 1.55Q38.07 1.55 35.9 0.4 33.72-0.75 32.53-3.08 31.35-5.4 30.97-8.95L30.97-8.95Q30.87-9.8 30.82-10.71 30.77-11.63 30.73-12.61 30.7-13.6 30.7-14.65 30.7-15.7 30.7-16.8L30.7-16.8Q30.7-21.08 31.52-23.86 32.35-26.65 34.11-28.23 35.87-29.8 38.63-30.45 41.4-31.1 45.22-31.1L45.22-31.1Q47.1-31.1 48.81-30.94 50.52-30.78 51.85-30.45 53.17-30.13 53.94-29.64 54.7-29.15 54.7-28.48L54.7-28.48Q54.7-27.78 54.28-27.36 53.87-26.95 53.22-26.83L53.22-26.83Q52.45-26.73 51.17-26.79 49.9-26.85 48.37-26.93 46.85-27 45.27-27L45.27-27Q43.02-27 41.5-26.66 39.97-26.33 39.05-25.55 38.12-24.78 37.72-23.45 37.32-22.13 37.32-20.18L37.32-20.18Q37.32-19.18 37.59-18.66 37.85-18.15 38.82-17.99 39.8-17.82 41.95-17.82L41.95-17.82Q42.47-17.82 43.25-17.84 44.02-17.85 44.86-17.88 45.7-17.9 46.44-17.9 47.17-17.9 47.6-17.9L47.6-17.9Q49.47-17.9 50.2-17.43 50.92-16.95 50.92-16.03L50.92-16.03Q50.92-14.7 50.06-14.21 49.2-13.73 47.77-13.73L47.77-13.73Q47.15-13.73 46.4-13.73 45.65-13.73 44.84-13.71 44.02-13.7 43.27-13.7 42.52-13.7 41.92-13.7L41.92-13.7Q39.7-13.7 38.62-13.56 37.55-13.43 37.23-12.96 36.92-12.5 36.92-11.5L36.92-11.5Q36.92-9.85 37.07-8.54 37.22-7.23 37.6-6.26 37.97-5.3 38.66-4.67 39.35-4.05 40.42-3.74 41.5-3.43 43.02-3.43L43.02-3.43Q44.92-3.43 46.75-3.55 48.57-3.68 50.05-3.79 51.52-3.9 52.35-3.9L52.35-3.9Q53.47-3.9 54-3.44 54.52-2.98 54.52-2.08L54.52-2.08Q54.52-1.07 53.28-0.38 52.05 0.33 50.06 0.75 48.07 1.18 45.75 1.36 43.42 1.55 41.25 1.55ZM69.67 1.55L69.67 1.55Q66.5 1.55 64.32 0.4 62.15-0.75 60.96-3.08 59.77-5.4 59.4-8.95L59.4-8.95Q59.3-9.8 59.25-10.71 59.2-11.63 59.16-12.61 59.12-13.6 59.12-14.65 59.12-15.7 59.12-16.8L59.12-16.8Q59.12-21.08 59.95-23.86 60.77-26.65 62.53-28.23 64.3-29.8 67.06-30.45 69.82-31.1 73.65-31.1L73.65-31.1Q75.52-31.1 77.23-30.94 78.95-30.78 80.27-30.45 81.59-30.13 82.36-29.64 83.12-29.15 83.12-28.48L83.12-28.48Q83.12-27.78 82.71-27.36 82.3-26.95 81.65-26.83L81.65-26.83Q80.87-26.73 79.59-26.79 78.32-26.85 76.8-26.93 75.27-27 73.7-27L73.7-27Q71.45-27 69.92-26.66 68.4-26.33 67.47-25.55 66.55-24.78 66.14-23.45 65.75-22.13 65.75-20.18L65.75-20.18Q65.75-19.18 66.01-18.66 66.27-18.15 67.25-17.99 68.22-17.82 70.37-17.82L70.37-17.82Q70.9-17.82 71.67-17.84 72.45-17.85 73.28-17.88 74.12-17.9 74.86-17.9 75.59-17.9 76.02-17.9L76.02-17.9Q77.9-17.9 78.62-17.43 79.34-16.95 79.34-16.03L79.34-16.03Q79.34-14.7 78.48-14.21 77.62-13.73 76.2-13.73L76.2-13.73Q75.57-13.73 74.82-13.73 74.07-13.73 73.26-13.71 72.45-13.7 71.7-13.7 70.95-13.7 70.34-13.7L70.34-13.7Q68.12-13.7 67.05-13.56 65.97-13.43 65.66-12.96 65.34-12.5 65.34-11.5L65.34-11.5Q65.34-9.85 65.5-8.54 65.64-7.23 66.02-6.26 66.39-5.3 67.08-4.67 67.77-4.05 68.84-3.74 69.92-3.43 71.45-3.43L71.45-3.43Q73.34-3.43 75.17-3.55 77-3.68 78.47-3.79 79.95-3.9 80.77-3.9L80.77-3.9Q81.9-3.9 82.42-3.44 82.95-2.98 82.95-2.08L82.95-2.08Q82.95-1.07 81.71-0.38 80.47 0.33 78.48 0.75 76.5 1.18 74.17 1.36 71.84 1.55 69.67 1.55ZM116.42 0.93L116.42 0.93Q111.14 0.93 107.93-1.88 104.72-4.67 103.29-9.28L103.29-9.28Q103.02-10.23 102.8-11.25 102.59-12.28 102.44-13.35 102.29-14.43 102.19-15.56 102.09-16.7 102.04-17.88 101.99-19.05 101.99-20.28L101.99-20.28Q101.99-23.68 102.39-25.71 102.79-27.75 103.68-28.64 104.57-29.53 105.99-29.53L105.99-29.53Q106.99-29.53 107.62-28.76 108.24-28 108.54-26.09 108.84-24.18 108.84-20.7L108.84-20.7Q108.84-19.68 108.87-18.66 108.89-17.65 108.97-16.69 109.04-15.73 109.14-14.8 109.24-13.88 109.4-13.03 109.57-12.18 109.77-11.43L109.77-11.43Q110.52-8.75 112.09-7.13 113.67-5.5 116.47-5.5L116.47-5.5Q118.22-5.5 119.53-6.25 120.84-7 121.77-8.33 122.69-9.65 123.29-11.38L123.29-11.38Q123.62-12.38 123.85-13.49 124.09-14.6 124.24-15.79 124.39-16.98 124.47-18.23 124.54-19.48 124.54-20.73L124.54-20.73Q124.54-23.98 124.89-25.83 125.24-27.68 125.99-28.45 126.74-29.23 127.92-29.23L127.92-29.23Q129.17-29.23 129.83-28.3 130.49-27.38 130.73-25.35 130.97-23.33 130.97-19.98L130.97-19.98Q130.97-18.8 130.9-17.64 130.84-16.48 130.73-15.36 130.62-14.25 130.43-13.19 130.24-12.13 129.99-11.11 129.74-10.1 129.42-9.13L129.42-9.13Q128.42-6.1 126.63-3.84 124.84-1.58 122.29-0.33 119.74 0.93 116.42 0.93ZM139.31 0.33L139.31 0.33Q137.66 0.33 136.88-0.88 136.09-2.08 136.09-3.98L136.09-3.98Q136.09-4.78 136.09-6.23 136.09-7.68 136.11-9.55 136.14-11.43 136.18-13.53 136.21-15.63 136.28-17.75 136.34-19.88 136.44-21.8 136.54-23.73 136.66-25.23L136.66-25.23Q136.94-27.65 137.64-28.65 138.34-29.65 139.91-29.65L139.91-29.65Q141.24-29.65 141.84-28.64 142.44-27.63 142.61-25.88L142.61-25.88Q142.66-24.8 142.71-23.18 142.76-21.55 142.79-19.63 142.81-17.7 142.83-15.69 142.84-13.68 142.84-11.81 142.84-9.95 142.84-8.44 142.84-6.93 142.81-6.03L142.81-6.03Q142.81-3.65 142.49-2.26 142.16-0.88 141.43-0.28 140.69 0.33 139.31 0.33Z" opacity="1" transform="matrix(1,0,0,1,0,0)" fill="#264f0b" class="wordmark-text-0" data-fill-palette-color="primary" id="text-0"></path></svg></g></svg></g></svg></g></svg></g><g><svg viewBox="0 0 126.28145248146842 126.28145248146842" height="126.28145248146842" width="126.28145248146842"><g><svg xmlns="http://www.w3.org/2000/svg" xmlns:xlink="http://www.w3.org/1999/xlink" version="1.1" x="0" y="0" viewBox="7.261 6.964 75.477 75.477" enable-background="new 0 0 90 90" xml:space="preserve" height="126.28145248146842" width="126.28145248146842" class="icon-icon-0" data-fill-palette-color="accent" id="icon-0"><g fill="#fc6c22" data-fill-palette-color="accent"><polygon points="43.583,37.298 32.386,9.106 29.752,10.152 41.15,38.849 43.583,41.282  " fill="#fc6c22" data-fill-palette-color="accent"></polygon><polygon points="46.418,52.112 57.613,80.299 60.247,79.252 48.85,50.556 46.418,48.125  " fill="#fc6c22" data-fill-palette-color="accent"></polygon><polygon points="37.596,46.119 9.403,57.317 10.45,59.951 39.146,48.554 41.58,46.119  " fill="#fc6c22" data-fill-palette-color="accent"></polygon><polygon points="52.409,43.286 80.598,32.09 79.551,29.455 50.855,40.853 48.422,43.286  " fill="#fc6c22" data-fill-palette-color="accent"></polygon><polygon points="38.762,40.468 10.91,28.452 9.788,31.053 38.139,43.286 41.579,43.286  " fill="#fc6c22" data-fill-palette-color="accent"></polygon><polygon points="51.239,48.938 79.089,60.954 80.212,58.352 51.861,46.12 48.421,46.12  " fill="#fc6c22" data-fill-palette-color="accent"></polygon><polygon points="49.236,38.463 61.252,10.613 58.649,9.49 46.418,37.841 46.418,41.281  " fill="#fc6c22" data-fill-palette-color="accent"></polygon><polygon points="40.765,50.943 28.75,78.793 31.352,79.916 43.583,51.565 43.583,48.125  " fill="#fc6c22" data-fill-palette-color="accent"></polygon><polygon points="48.85,50.556 70.683,72.39 72.687,70.386 51.239,48.938 47.579,47.359  " fill="#fc6c22" data-fill-palette-color="accent"></polygon><polygon points="41.15,38.849 19.316,17.015 17.313,19.019 38.762,40.468 42.42,42.046  " fill="#fc6c22" data-fill-palette-color="accent"></polygon><polygon points="43.583,42.548 42.42,42.046 42.913,43.286 43.583,43.286  " fill="#fc6c22" data-fill-palette-color="accent"></polygon><polygon points="46.418,46.857 47.579,47.359 47.087,46.119 46.418,46.119  " fill="#fc6c22" data-fill-palette-color="accent"></polygon><polygon points="50.855,40.853 72.688,19.02 70.684,17.016 49.236,38.463 47.657,42.123  " fill="#fc6c22" data-fill-palette-color="accent"></polygon><polygon points="39.146,48.554 17.313,70.387 19.317,72.391 40.765,50.943 42.344,47.283  " fill="#fc6c22" data-fill-palette-color="accent"></polygon><polygon points="47.155,43.286 47.657,42.123 46.418,42.615 46.418,43.286  " fill="#fc6c22" data-fill-palette-color="accent"></polygon><polygon points="42.846,46.119 42.344,47.283 43.583,46.791 43.583,46.119  " fill="#fc6c22" data-fill-palette-color="accent"></polygon><polygon points="82.738,43.286 52.409,43.286 48.704,44.757 51.861,46.12 82.738,46.12  " fill="#fc6c22" data-fill-palette-color="accent"></polygon><polygon points="38.139,43.286 7.261,43.286 7.261,46.119 37.596,46.119 41.298,44.649  " fill="#fc6c22" data-fill-palette-color="accent"></polygon><polygon points="42.475,44.182 41.298,44.649 42.522,45.177 42.997,44.703  " fill="#fc6c22" data-fill-palette-color="accent"></polygon><polygon points="47.005,44.704 47.526,45.225 48.704,44.757 47.479,44.229  " fill="#fc6c22" data-fill-palette-color="accent"></polygon><polygon points="42.913,43.286 41.579,43.286 42.475,44.182 43.16,43.909  " fill="#fc6c22" data-fill-palette-color="accent"></polygon><polygon points="47.087,46.119 48.421,46.12 47.526,45.225 46.84,45.498  " fill="#fc6c22" data-fill-palette-color="accent"></polygon><polygon points="43.583,43.741 43.16,43.909 43.339,44.36 43.583,44.116  " fill="#fc6c22" data-fill-palette-color="accent"></polygon><polygon points="46.418,45.666 46.84,45.498 46.661,45.047 46.418,45.29  " fill="#fc6c22" data-fill-palette-color="accent"></polygon><polygon points="42.522,45.177 41.58,46.119 42.846,46.119 43.138,45.443  " fill="#fc6c22" data-fill-palette-color="accent"></polygon><polygon points="47.479,44.229 48.422,43.286 47.155,43.286 46.863,43.963  " fill="#fc6c22" data-fill-palette-color="accent"></polygon><polygon points="43.318,45.025 43.138,45.443 43.583,45.635 43.583,45.29  " fill="#fc6c22" data-fill-palette-color="accent"></polygon><polygon points="46.683,44.382 46.863,43.963 46.418,43.771 46.418,44.117  " fill="#fc6c22" data-fill-palette-color="accent"></polygon><polygon points="46.534,44.727 46.661,45.047 47.005,44.704 46.683,44.382  " fill="#fc6c22" data-fill-palette-color="accent"></polygon><polygon points="43.339,44.36 42.997,44.703 43.318,45.025 43.467,44.681  " fill="#fc6c22" data-fill-palette-color="accent"></polygon><polygon points="46.418,44.996 46.534,44.727 46.418,44.435  " fill="#fc6c22" data-fill-palette-color="accent"></polygon><polygon points="43.467,44.681 43.583,44.976 43.583,44.41  " fill="#fc6c22" data-fill-palette-color="accent"></polygon><polygon points="46.418,37.841 46.418,6.964 43.583,6.964 43.583,37.298 45.054,41.001  " fill="#fc6c22" data-fill-palette-color="accent"></polygon><polygon points="43.583,51.565 43.583,82.441 46.418,82.441 46.418,52.112 44.946,48.407  " fill="#fc6c22" data-fill-palette-color="accent"></polygon><polygon points="45.521,42.178 45.054,41.001 44.526,42.225 45,42.699  " fill="#fc6c22" data-fill-palette-color="accent"></polygon><polygon points="44.479,47.229 44.946,48.407 45.475,47.182 45.001,46.707  " fill="#fc6c22" data-fill-palette-color="accent"></polygon><polygon points="44.526,42.225 43.583,41.282 43.583,42.548 44.261,42.841  " fill="#fc6c22" data-fill-palette-color="accent"></polygon><polygon points="45.475,47.182 46.418,48.125 46.418,46.857 45.741,46.565  " fill="#fc6c22" data-fill-palette-color="accent"></polygon><polygon points="45.323,46.386 45.741,46.565 45.933,46.119 45.589,46.119  " fill="#fc6c22" data-fill-palette-color="accent"></polygon><polygon points="44.679,43.021 44.261,42.841 44.069,43.286 44.414,43.286  " fill="#fc6c22" data-fill-palette-color="accent"></polygon><polygon points="43.583,46.791 43.583,48.125 44.479,47.229 44.207,46.544  " fill="#fc6c22" data-fill-palette-color="accent"></polygon><polygon points="46.418,42.615 46.418,41.281 45.521,42.178 45.794,42.863  " fill="#fc6c22" data-fill-palette-color="accent"></polygon><polygon points="44.038,46.119 44.207,46.544 44.658,46.364 44.413,46.119  " fill="#fc6c22" data-fill-palette-color="accent"></polygon><polygon points="45.962,43.286 45.794,42.863 45.343,43.042 45.587,43.286  " fill="#fc6c22" data-fill-palette-color="accent"></polygon><polygon points="44.658,46.364 45.001,46.707 45.323,46.386 44.979,46.237  " fill="#fc6c22" data-fill-palette-color="accent"></polygon><polygon points="45.343,43.042 45,42.699 44.679,43.021 45.023,43.169  " fill="#fc6c22" data-fill-palette-color="accent"></polygon><polygon points="44.979,46.237 45.274,46.119 44.707,46.119  " fill="#fc6c22" data-fill-palette-color="accent"></polygon><polygon points="45.023,43.169 44.729,43.286 45.293,43.286  " fill="#fc6c22" data-fill-palette-color="accent"></polygon><polygon points="44.069,43.286 43.583,43.286 43.583,43.741 43.932,43.603  " fill="#fc6c22" data-fill-palette-color="accent"></polygon><polygon points="45.933,46.119 46.418,46.119 46.418,45.666 46.069,45.804  " fill="#fc6c22" data-fill-palette-color="accent"></polygon><polygon points="46.069,45.804 46.194,45.514 45.796,45.913  " fill="#fc6c22" data-fill-palette-color="accent"></polygon><polygon points="43.932,43.603 43.807,43.893 44.205,43.494  " fill="#fc6c22" data-fill-palette-color="accent"></polygon><polygon points="43.583,45.635 43.583,46.119 44.038,46.119 43.899,45.771  " fill="#fc6c22" data-fill-palette-color="accent"></polygon><polygon points="46.418,43.771 46.418,43.286 45.962,43.286 46.1,43.634  " fill="#fc6c22" data-fill-palette-color="accent"></polygon><polygon points="43.899,45.771 44.19,45.896 43.791,45.497  " fill="#fc6c22" data-fill-palette-color="accent"></polygon><polygon points="46.1,43.634 45.81,43.509 46.209,43.908  " fill="#fc6c22" data-fill-palette-color="accent"></polygon><polygon points="46.418,45.29 46.418,44.996 46.194,45.514  " fill="#fc6c22" data-fill-palette-color="accent"></polygon><polygon points="43.583,44.116 43.583,44.41 43.807,43.893  " fill="#fc6c22" data-fill-palette-color="accent"></polygon><polygon points="45.587,43.286 45.293,43.286 45.81,43.509  " fill="#fc6c22" data-fill-palette-color="accent"></polygon><polygon points="44.413,46.119 44.707,46.119 44.19,45.896  " fill="#fc6c22" data-fill-palette-color="accent"></polygon><polygon points="45.589,46.119 45.796,45.913 45.274,46.119  " fill="#fc6c22" data-fill-palette-color="accent"></polygon><polygon points="44.414,43.286 44.205,43.494 44.729,43.286  " fill="#fc6c22" data-fill-palette-color="accent"></polygon><polygon points="43.583,45.29 43.791,45.497 43.583,44.976  " fill="#fc6c22" data-fill-palette-color="accent"></polygon><polygon points="46.418,44.117 46.209,43.908 46.418,44.435  " fill="#fc6c22" data-fill-palette-color="accent"></polygon></g></svg></g></svg></g></svg></g><defs></defs></svg><rect width="395.52" height="91.9199714995468" fill="none" stroke="none" visibility="hidden"></rect></g></svg></g></svg>